<svg id="Layer_1" data-name="Layer 1" xmlns="http://www.w3.org/2000/svg" xmlns:xlink="http://www.w3.org/1999/xlink" viewBox="0 0 481 173"><defs><style>.cls-1{fill:none;}.cls-2{clip-path:url(#clip-path);}.cls-3{fill:#1655a3;}.cls-4{fill:#e84e0f;}.cls-5{clip-path:url(#clip-path-2);}</style><clipPath id="clip-path"><rect class="cls-1" width="481" height="173"/></clipPath><clipPath id="clip-path-2"><rect class="cls-1" x="-50" y="-158.89" width="595.28" height="841.89"/></clipPath></defs><g class="cls-2"><path class="cls-3" d="M77.39,26.9C72.84,33.54,69.7,44,68,55.4a110,110,0,0,1-23.18-5.2A51.5,51.5,0,0,1,77.39,26.9m54.86,23.3a110,110,0,0,1-23.17,5.2c-1.71-11.35-4.85-21.86-9.4-28.49A51.53,51.53,0,0,1,132.25,50.2M88.54,56.64c-5,0-9.9-.22-14.64-.62,2.88-19,9.34-30.4,14.64-30.4S100.29,37,103.17,56c-4.73.4-9.64.62-14.63.62M34.9,68.79a3.05,3.05,0,0,0,.6.06,3,3,0,0,0,2.89-2.37,50.3,50.3,0,0,1,3.65-11,114.62,114.62,0,0,0,25.21,5.78c-.15,1.46-.28,2.93-.39,4.4a3,3,0,0,0,2.74,3.17h.22a3,3,0,0,0,3-2.75c.11-1.44.23-2.84.37-4.21,5,.44,10.16.67,15.4.67s10.4-.23,15.38-.67c.14,1.31.27,2.64.37,4a3,3,0,1,0,5.91-.44c-.11-1.39-.23-2.8-.38-4.19A114.62,114.62,0,0,0,135,55.49a49.86,49.86,0,0,1,3.61,10.8,3,3,0,0,0,5.81-1.21,56.31,56.31,0,0,0-5.15-14.41l0-.09a3,3,0,0,0-.39-.65,57.06,57.06,0,0,0-101,.6l0,0h0a56.56,56.56,0,0,0-5.22,14.71,3,3,0,0,0,2.31,3.5"/><path class="cls-3" d="M99.66,134.89c4.54-6.63,7.69-17.14,9.39-28.49a109.74,109.74,0,0,1,23.17,5.2,51.49,51.49,0,0,1-32.56,23.29M44.8,111.6A109.88,109.88,0,0,1,68,106.4c1.7,11.34,4.85,21.85,9.4,28.49A51.61,51.61,0,0,1,44.8,111.6m43.71-6.45c5,0,9.9.22,14.64.63-2.88,19-9.34,30.4-14.64,30.4h0c-5.28,0-11.76-11.4-14.64-30.4,4.74-.41,9.64-.63,14.64-.63M142.15,93a3,3,0,0,0-3.5,2.31,50.12,50.12,0,0,1-3.65,11,115.05,115.05,0,0,0-25.21-5.78c.16-1.46.29-2.93.39-4.4a3,3,0,1,0-5.91-.43c-.1,1.44-.23,2.84-.37,4.22-5-.44-10.15-.68-15.39-.68s-10.4.24-15.39.68c-.14-1.32-.26-2.64-.36-4a3,3,0,0,0-5.91.43c.1,1.4.22,2.8.37,4.2A114.64,114.64,0,0,0,42,106.3,50.32,50.32,0,0,1,38.4,95.51a3,3,0,1,0-5.8,1.21,56.32,56.32,0,0,0,5.17,14.44s0,0,0,0a2.72,2.72,0,0,0,.36.62A57.37,57.37,0,0,0,88.51,142.1h0a57.34,57.34,0,0,0,50.7-30.85s0,0,0,0h0a56.56,56.56,0,0,0,5.22-14.71,3,3,0,0,0-2.31-3.5"/><path class="cls-3" d="M144.27,83h-4.81V77.3h4.81ZM45.54,77.3h88V83h-88ZM36.3,83l-4.95-2.87L36.3,77.3h3.32V83ZM147.23,71.37H35.51l-.16,0a2,2,0,0,0-.34,0l-.27.06-.28.09-.29.13-.15.07L24,77.6a1,1,0,0,1-.13.09l-.27.2-.2.18a2.09,2.09,0,0,0-.2.22,1.51,1.51,0,0,0-.18.26.64.64,0,0,0-.1.13.3.3,0,0,0,0,.1,2.39,2.39,0,0,0-.13.28,2.77,2.77,0,0,0-.1.26,2.3,2.3,0,0,0-.06.28,2.5,2.5,0,0,0-.05.29,2.44,2.44,0,0,0,0,.27,2.71,2.71,0,0,0,0,.29c0,.09,0,.19,0,.28s0,.19.07.29l.09.24c0,.1.09.2.14.3a.36.36,0,0,0,0,.09l.07.09a3,3,0,0,0,.34.45c.05,0,.08.09.13.13a3.2,3.2,0,0,0,.54.41h0l10,5.81s.07,0,.11,0a4.4,4.4,0,0,0,.5.21l.18.05a3.09,3.09,0,0,0,.68.09H147.23a3,3,0,0,0,3-3V74.33a3,3,0,0,0-3-3"/><path class="cls-3" d="M242.54,67V82.58a9,9,0,0,0,4.55.88q3.61,0,5.16-2.48t1.54-7.55q0-9.62-5.83-9.62a5.78,5.78,0,0,0-3,.82,5.71,5.71,0,0,0-1.86,1.63l-.53.76.53-.76ZM234,63.81l-4.66-1.16V58l12.24-.46.53,3.26,1.25-1.05a17.36,17.36,0,0,1,3-1.72,10,10,0,0,1,4.34-1.07q6,0,9,4.1t3.09,11.34q0,8.28-4,12.74t-11.93,4.46a18.52,18.52,0,0,1-4.37-.58v7.4l5.54,1.34v4.66H229.43V97.74L234,96.4Zm-49.26-5.65L180.11,72h9ZM190,47.9l12.53,34.68,4.08,1.34V89H188V83.92l4.38-1.34L191,78.21H178.07l-1.46,4.32,4.55,1.39V89H163.55V83.92l4.26-1.34,12.82-34.5Z"/><path class="cls-4" d="M373.9,47.9a5.05,5.05,0,0,1,1.48-3.82,4.93,4.93,0,0,1,3.53-1.43c3.26,0,4.9,1.75,4.9,5.25a5.15,5.15,0,0,1-1.49,3.88,4.78,4.78,0,0,1-3.41,1.42,4.85,4.85,0,0,1-3.7-1.37,5.43,5.43,0,0,1-1.31-3.93M370.34,58l13.23-.46V82.87l4.08,1.46V89H370.34V84.33L375,82.87V63.81l-4.66-1.16Zm-18.25-3.2v27.4H361l1.28-6.59h5.54V89H338.69V83.92l4.37-1.45V54.78L338.69,53V48.19l17.78-.29V53Z"/></g><polygon class="cls-3" points="209.65 44.29 223.12 43.82 223.12 82.88 228.66 84.33 228.66 89 209.65 89 209.65 84.33 214.32 82.88 214.32 50.12 209.65 48.95 209.65 44.29"/><g class="cls-5"><path class="cls-3" d="M263.94,44.29l13.23-.47V60.9q4.79-4,9.79-4a8.31,8.31,0,0,1,6.71,2.77c1.55,1.85,2.33,4.42,2.33,7.73V82.87l4.08,1.46V89H284.34V84.33l3-1.4V68.77q0-4.67-3.85-4.67a6.84,6.84,0,0,0-3,.79A12.15,12.15,0,0,0,278,66.44l-.87.75V82.87l3.09,1.46V89H263.94V84.33l4.66-1.46V50.11L263.94,49Z"/><path class="cls-3" d="M311.17,79.55q0,3.49,3.43,3.5a6.09,6.09,0,0,0,2.95-.85A10.49,10.49,0,0,0,320,80.48l.87-.81V75.76h-3.32a9.7,9.7,0,0,0-4.87.91,3.11,3.11,0,0,0-1.48,2.88m22.67,9L322.3,89l-1.05-3.79c-.35.31-.82.71-1.4,1.19a18.34,18.34,0,0,1-3.35,1.95,10.59,10.59,0,0,1-4.69,1.23,9,9,0,0,1-6.65-2.39,9.16,9.16,0,0,1-2.39-6.76q0-9.63,14-9.62h4.08V67.6c0-2.91-1.49-4.37-4.49-4.37a15.11,15.11,0,0,0-2.62.23,12.44,12.44,0,0,0-1.92.47l-.59.17-.87,3.79H305.1l-.41-8.62a40.7,40.7,0,0,1,12.66-2.33q6.63,0,9.38,2.59t2.74,9V82.87l4.37,1Z"/><path class="cls-4" d="M390.79,58l12.06-.46.41,4c.43-.35,1-.77,1.69-1.25a25.46,25.46,0,0,1,3.88-2A12.78,12.78,0,0,1,414,57.05a7.8,7.8,0,0,1,6.44,2.77,11.79,11.79,0,0,1,2.24,7.61V82.88q.76.23,2.16.75c.93.35,1.57.59,1.92.7V89H411V84.33l3.09-1.45V68.77A5.14,5.14,0,0,0,413,65.42a3.54,3.54,0,0,0-2.89-1.31A6.58,6.58,0,0,0,407,65a9.24,9.24,0,0,0-2.3,1.66l-.76.82V82.88l3,1.45V89H390.79V84.33l4.49-1.45V63.81l-4.49-1.16Z"/><path class="cls-4" d="M444.44,90.16h-6.12a5,5,0,0,0-.76.41,5.78,5.78,0,0,0-1.25,1.28,3.35,3.35,0,0,0-.79,2.1,2.74,2.74,0,0,0,1.72,2.8,16.17,16.17,0,0,0,5.57.7,12.89,12.89,0,0,0,5.71-.93,3.19,3.19,0,0,0,1.75-3,2.69,2.69,0,0,0-1.37-2.59,10,10,0,0,0-4.46-.73m-2.5-27.22q-5,0-5,5.54c0,3.88,1.55,5.83,4.66,5.83a4.67,4.67,0,0,0,3.82-1.4,7,7,0,0,0,1.14-4.43c0-3.69-1.56-5.54-4.66-5.54M427.07,95.41a5.91,5.91,0,0,1,1.52-4,8.7,8.7,0,0,1,3-2.39l1.57-.64a6.72,6.72,0,0,1-1-.23A4.34,4.34,0,0,1,430.66,87a3.33,3.33,0,0,1-1-2.44c0-1.21,1-3.4,3-6.59q-4.49-3-4.48-9.1,0-5.76,3.87-8.86a15.82,15.82,0,0,1,10.12-3.08,16,16,0,0,1,6.87,1.39l10-.23v4.66l-4.78.82a8.23,8.23,0,0,0,.29.79,9.89,9.89,0,0,1,.5,1.72,10.85,10.85,0,0,1,.2,2.1q0,6.06-3.79,9t-10.2,3c-.46,0-.92,0-1.37-.06a10.76,10.76,0,0,1-1.11-.15l-.49-.09-.23,3.91h8.62q5.6,0,8.63,2.33a8,8,0,0,1,3,6.7,9.51,9.51,0,0,1-4.11,8q-4.11,3-12.21,3-7.35,0-11.19-1.92a6.73,6.73,0,0,1-3.85-6.53"/><path class="cls-3" d="M448.5,117.62c.5,0,1.42,0,2.77,0a3,3,0,0,1,2,.49,2.52,2.52,0,0,1,.55,1.88,2.58,2.58,0,0,1-.55,1.91,3,3,0,0,1-2,.53H448.5Zm6.53,7.8a2.49,2.49,0,0,0-1.72-2v-.1a2.66,2.66,0,0,0,1.93-1,4.32,4.32,0,0,0,.59-2.48,3.87,3.87,0,0,0-1-3.1,5.52,5.52,0,0,0-3.5-.86q-3.09,0-4.77.18v13.66h2v-5.64l2.81,0a1.71,1.71,0,0,1,1.72,1.37l1.17,4.25h2.12Zm-17.46,2.67a1,1,0,0,1-.84-.29,1.46,1.46,0,0,1-.25-1v-3.48h5.76v-1.6h-5.76V119a1.48,1.48,0,0,1,.25-1,1,1,0,0,1,.84-.28H443l.1-1.55c-1.2-.1-3.15-.16-5.86-.16a2.85,2.85,0,0,0-2,.67,2.33,2.33,0,0,0-.75,1.79v8.83a2.33,2.33,0,0,0,.75,1.79,2.89,2.89,0,0,0,2,.66q4.06,0,5.86-.15l-.1-1.53Zm-13.17,0,7.05-10.29v-1.69h-9.13v1.69h7l-7.07,10.29v1.68h9.37v-1.68Zm-4.39-12H409.37v1.76h4.3v11.9h2v-11.9H420Zm-18.81,12a1,1,0,0,1-.84-.29,1.46,1.46,0,0,1-.25-1v-3.48h5.76v-1.6h-5.76V119a1.48,1.48,0,0,1,.25-1,1,1,0,0,1,.84-.28h5.42l.1-1.55c-1.2-.1-3.15-.16-5.86-.16a2.85,2.85,0,0,0-2,.67,2.33,2.33,0,0,0-.75,1.79v8.83a2.33,2.33,0,0,0,.75,1.79,2.89,2.89,0,0,0,2,.66q4.06,0,5.86-.15l-.1-1.53Zm-8.79-3.36a2.33,2.33,0,0,1,.35,1.46c0,.83-.17,1.37-.52,1.62a3.94,3.94,0,0,1-2.07.4c-.74,0-2.14,0-4.2-.1l-.14,1.47a23.8,23.8,0,0,0,4.3.39,6.4,6.4,0,0,0,3.62-.75c.69-.5,1-1.51,1-3a4.53,4.53,0,0,0-.62-2.53,3.62,3.62,0,0,0-2.15-1.35l-2.71-.75a2.51,2.51,0,0,1-1.28-.66,2.16,2.16,0,0,1-.37-1.42c0-.86.18-1.39.52-1.6a4.65,4.65,0,0,1,2.06-.3c.7,0,2,0,3.92.1l.12-1.45a17.48,17.48,0,0,0-4.12-.42,13.36,13.36,0,0,0-2,.12,3.76,3.76,0,0,0-1.37.5,2,2,0,0,0-.86,1.1,6.09,6.09,0,0,0-.25,1.89,4.48,4.48,0,0,0,.63,2.54,3.41,3.41,0,0,0,2.09,1.34l2.77.77a2.54,2.54,0,0,1,1.27.64m-17.27-7.11c.5,0,1.43,0,2.77,0a3,3,0,0,1,2,.49,2.48,2.48,0,0,1,.55,1.88,2.53,2.53,0,0,1-.55,1.91,3,3,0,0,1-2,.53h-2.77Zm6.53,7.8a2.47,2.47,0,0,0-1.72-2v-.1a2.66,2.66,0,0,0,1.93-1,4.32,4.32,0,0,0,.59-2.48,3.87,3.87,0,0,0-1-3.1,5.52,5.52,0,0,0-3.5-.86q-3.09,0-4.77.18v13.66h2v-5.64l2.81,0a1.73,1.73,0,0,1,1.73,1.37l1.16,4.25H383Zm-17.46,2.67a1,1,0,0,1-.84-.29,1.46,1.46,0,0,1-.25-1v-3.48h5.76v-1.6h-5.76V119a1.48,1.48,0,0,1,.25-1,1.06,1.06,0,0,1,.84-.28h5.43l.1-1.55c-1.21-.1-3.16-.16-5.87-.16a2.85,2.85,0,0,0-2,.67,2.41,2.41,0,0,0-.75,1.79v8.83a2.41,2.41,0,0,0,.75,1.79,2.89,2.89,0,0,0,2,.66c2.71,0,4.66-.05,5.87-.15l-.1-1.53Zm-14.16-4.67h2.8a3.46,3.46,0,0,1,2.2.55,2.62,2.62,0,0,1,.61,2,2.15,2.15,0,0,1-.57,1.77,3.55,3.55,0,0,1-2.12.45l-2.92,0Zm0-5.82h2.52a4,4,0,0,1,2.18.42,2,2,0,0,1,.59,1.7,2.19,2.19,0,0,1-.54,1.73,3.21,3.21,0,0,1-2,.44h-2.78Zm6.64,4.13a3.81,3.81,0,0,0,.55-2.25,3.31,3.31,0,0,0-1-2.82,6.2,6.2,0,0,0-3.57-.75c-2,0-3.49.06-4.56.16v13.66c1.21.11,2.92.16,5.15.16a5.82,5.82,0,0,0,3.42-.75,3.38,3.38,0,0,0,1-2.81,4.5,4.5,0,0,0-.63-2.6,2.65,2.65,0,0,0-2.1-1v-.08a2.37,2.37,0,0,0,1.76-.88m-14.59-5.66v8.4a4.7,4.7,0,0,1-.69,2.93,3.8,3.8,0,0,1-4.74,0,4.78,4.78,0,0,1-.67-2.93v-8.4h-2v8.4c0,2,.38,3.43,1.16,4.26s2.08,1.26,3.95,1.26a4.94,4.94,0,0,0,3.83-1.26c.74-.83,1.12-2.26,1.12-4.26v-8.4ZM340,113v1.07a.47.47,0,0,0,.53.54h.61a.48.48,0,0,0,.54-.54V113q0-.51-.54-.51h-.61c-.36,0-.53.17-.53.51m-3.51,0v1.07c0,.36.17.54.52.54h.63a.47.47,0,0,0,.52-.54V113a.46.46,0,0,0-.52-.51H337a.45.45,0,0,0-.52.51m-15.83,6.69a2.82,2.82,0,0,1-.45.74,3.24,3.24,0,0,1-.68.59,8,8,0,0,1-.82.48,3.46,3.46,0,0,1-1.34-2.52,1.87,1.87,0,0,1,.46-1.29,1.7,1.7,0,0,1,1.34-.53,1.63,1.63,0,0,1,1.22.47,1.61,1.61,0,0,1,.44,1.14,2.43,2.43,0,0,1-.17.92m-4.45,5.27a2.77,2.77,0,0,1,.48-.82,3.07,3.07,0,0,1,.67-.58,6.71,6.71,0,0,1,.72-.42l3.86,3.9a4.45,4.45,0,0,1-1.46,1,4.37,4.37,0,0,1-1.79.36,3,3,0,0,1-1.25-.23,2.44,2.44,0,0,1-.83-.57,2.08,2.08,0,0,1-.45-.77,2.47,2.47,0,0,1-.14-.77,2.93,2.93,0,0,1,.19-1.11m-1.81,2.44a3.25,3.25,0,0,0,.74,1.24,4.24,4.24,0,0,0,1.37.93,5.53,5.53,0,0,0,2.14.36,5.78,5.78,0,0,0,2.46-.5,6.78,6.78,0,0,0,1.88-1.32l.72.83a7.47,7.47,0,0,1,.59.81h1.94a9.87,9.87,0,0,0-1-1.42c-.39-.49-.82-1-1.28-1.49a9.54,9.54,0,0,0,.92-1.91,8.25,8.25,0,0,0,.41-1.77l-1.53-.2a7.82,7.82,0,0,1-.87,2.77l-3.21-3.26a7.25,7.25,0,0,0,1.05-.68,5,5,0,0,0,.88-.83,3.87,3.87,0,0,0,.62-1,3.48,3.48,0,0,0,0-2.41,2.52,2.52,0,0,0-.65-1,3,3,0,0,0-1.05-.64,4.09,4.09,0,0,0-1.41-.23,4.27,4.27,0,0,0-1.42.23,3.29,3.29,0,0,0-1.11.68,3,3,0,0,0-.73,1.07,3.56,3.56,0,0,0-.27,1.42,4.31,4.31,0,0,0,1.47,3,10.28,10.28,0,0,0-1.11.64,4.54,4.54,0,0,0-.94.86,3.67,3.67,0,0,0-.64,1.08,3.77,3.77,0,0,0-.24,1.38,4.07,4.07,0,0,0,.22,1.29m-15.8-9.76c.5,0,1.42,0,2.77,0a3.07,3.07,0,0,1,2,.49,2.53,2.53,0,0,1,.54,1.88,2.58,2.58,0,0,1-.54,1.91,3,3,0,0,1-2,.53h-2.77Zm6.53,7.8a2.49,2.49,0,0,0-1.72-2v-.1a2.68,2.68,0,0,0,1.93-1,4.33,4.33,0,0,0,.58-2.48,3.87,3.87,0,0,0-1-3.1,5.48,5.48,0,0,0-3.49-.86q-3.09,0-4.77.18v13.66h2v-5.64l2.81,0a1.71,1.71,0,0,1,1.72,1.37l1.17,4.25h2.12Zm-17.46,2.67a1.05,1.05,0,0,1-.85-.29,1.53,1.53,0,0,1-.24-1v-3.48h5.76v-1.6h-5.76V119a1.55,1.55,0,0,1,.24-1,1.09,1.09,0,0,1,.85-.28h5.42l.1-1.55c-1.2-.1-3.15-.16-5.86-.16a2.83,2.83,0,0,0-2,.67,2.33,2.33,0,0,0-.75,1.79v8.83a2.33,2.33,0,0,0,.75,1.79,2.87,2.87,0,0,0,2,.66q4.06,0,5.86-.15l-.1-1.53Zm-9.09-12v5.53h-6v-5.53h-2v13.66h2V123.3h6v6.43h2V116.07Zm-15.19,12.14a2.82,2.82,0,0,1-2.6-1.15,8.44,8.44,0,0,1-.72-4.16,8.42,8.42,0,0,1,.72-4.15,2.82,2.82,0,0,1,2.6-1.15,35.22,35.22,0,0,1,3.59.16l.19-1.53a16.36,16.36,0,0,0-3.78-.4q-3,0-4.2,1.59T258,122.9q0,3.9,1.2,5.49c.81,1.05,2.21,1.58,4.2,1.58a15.15,15.15,0,0,0,4.06-.47l-.2-1.51a25.13,25.13,0,0,1-3.86.22M253,124.73a2.33,2.33,0,0,1,.35,1.46c0,.83-.17,1.37-.52,1.62a3.94,3.94,0,0,1-2.07.4c-.74,0-2.14,0-4.2-.1l-.14,1.47a23.8,23.8,0,0,0,4.3.39,6.4,6.4,0,0,0,3.62-.75c.69-.5,1-1.51,1-3a4.53,4.53,0,0,0-.62-2.53,3.62,3.62,0,0,0-2.15-1.35l-2.71-.75a2.51,2.51,0,0,1-1.28-.66,2.16,2.16,0,0,1-.37-1.42c0-.86.18-1.39.52-1.6a4.65,4.65,0,0,1,2.06-.3c.7,0,2,0,3.92.1l.12-1.45a17.48,17.48,0,0,0-4.12-.42,13.36,13.36,0,0,0-2,.12,3.76,3.76,0,0,0-1.37.5,2,2,0,0,0-.86,1.1,6.09,6.09,0,0,0-.25,1.89,4.48,4.48,0,0,0,.63,2.54,3.41,3.41,0,0,0,2.09,1.34l2.77.77a2.54,2.54,0,0,1,1.27.64m-8.68-8.66H233.73v1.76H238v11.9h2v-11.9h4.33Zm-18.41,12a1,1,0,0,1-.84-.29,1.46,1.46,0,0,1-.25-1v-3.48h5.76v-1.6h-5.76V119a1.48,1.48,0,0,1,.25-1,1,1,0,0,1,.84-.28h5.43l.09-1.55c-1.2-.1-3.15-.16-5.86-.16a2.85,2.85,0,0,0-2,.67,2.37,2.37,0,0,0-.75,1.79v8.83a2.37,2.37,0,0,0,.75,1.79,2.89,2.89,0,0,0,2,.66q4.06,0,5.86-.15l-.09-1.53Zm-11.23-11.34-2.29,8c-.16.55-.32,1.17-.48,1.87h-.35c-.18-.76-.33-1.37-.46-1.85l-2.32-8a.83.83,0,0,0-.83-.68h-2.2q-.76,0-.81.81l-.51,12.85h2l.45-12h.38l2.79,9.72a.82.82,0,0,0,.87.67h1.72a.81.81,0,0,0,.86-.67l2.77-9.72h.39l.48,12h2l-.56-12.85a.73.73,0,0,0-.81-.81h-2.16a.87.87,0,0,0-.87.68m-21-.68v11c0,1.8,1,2.69,2.91,2.69,2.23,0,4-.06,5.26-.17l-.1-1.53H196.9a1.29,1.29,0,0,1-1-.29,1.4,1.4,0,0,1-.27-1V116.07ZM188,122.9a8.36,8.36,0,0,1-.73,4.18,3.63,3.63,0,0,1-5.3,0,8.5,8.5,0,0,1-.72-4.18,8.46,8.46,0,0,1,.72-4.17,3.63,3.63,0,0,1,5.3,0,8.32,8.32,0,0,1,.73,4.17m-7.62-5.54c-.8,1-1.21,2.88-1.21,5.54s.41,4.52,1.21,5.55,2.22,1.54,4.24,1.54,3.45-.51,4.25-1.54,1.21-2.88,1.21-5.55-.4-4.51-1.21-5.54-2.22-1.55-4.25-1.55-3.43.52-4.24,1.55m-11.33.27h1.57a2.79,2.79,0,0,1,2.58,1.15,8.22,8.22,0,0,1,.73,4.13,8.24,8.24,0,0,1-.73,4.14,2.79,2.79,0,0,1-2.58,1.15c-1.12,0-2.11,0-3-.06V117.64H169m1.57,12.28c2,0,3.41-.51,4.21-1.52s1.19-2.85,1.19-5.49-.39-4.46-1.19-5.48-2.2-1.53-4.21-1.53c-1.56,0-3.2.06-4.93.18v13.66c1.73.12,3.37.18,4.93.18"/></g></svg>